HIERARCHY
ROOT Torso
{
	OFFSET 0.000000 0.000000 0.000000
	CHANNELS 6 Xposition Yposition Zposition Zrotation Yrotation Xrotation
	JOINT LeftThigh
	{
		OFFSET 0.055000 0.115000 0.010000
		CHANNELS 6 Xposition Yposition Zposition Zrotation Yrotation Xrotation
		JOINT LeftLeg
		{
			OFFSET 0.000000 0.120000 -0.015000
			CHANNELS 6 Xposition Yposition Zposition Zrotation Yrotation Xrotation
			JOINT LeftFoot
			{
				OFFSET 0.000000 0.100000 0.010000
				CHANNELS 6 Xposition Yposition Zposition Zrotation Yrotation Xrotation
				End Site
				{
					OFFSET 0.000000 0.035000 -0.090000
				}
			}
		}
	}
	JOINT RightThigh
	{
		OFFSET -0.055000 0.115000 0.010000
		CHANNELS 6 Xposition Yposition Zposition Zrotation Yrotation Xrotation
		JOINT RightLeg
		{
			OFFSET 0.000000 0.120000 -0.015000
			CHANNELS 6 Xposition Yposition Zposition Zrotation Yrotation Xrotation
			JOINT RightFoot
			{
				OFFSET 0.000000 0.100000 0.010000
				CHANNELS 6 Xposition Yposition Zposition Zrotation Yrotation Xrotation
				End Site
				{
					OFFSET 0.000000 0.035000 -0.090000
				}
			}
		}
	}
	JOINT Neck
	{
		OFFSET 0.000000 -0.040000 -0.000000
		CHANNELS 6 Xposition Yposition Zposition Zrotation Yrotation Xrotation
		JOINT Head
		{
			OFFSET 0.000000 -0.100000 -0.000000
			CHANNELS 6 Xposition Yposition Zposition Zrotation Yrotation Xrotation
			End Site
			{
				OFFSET 0.000000 -0.070000 -0.000000
			}
		}
	}
	JOINT LeftUpperarm
	{
		OFFSET 0.098000 -0.075000 -0.000000
		CHANNELS 6 Xposition Yposition Zposition Zrotation Yrotation Xrotation
		JOINT LeftLowerarm
		{
			OFFSET 0.000000 -0.009000 -0.090000
			CHANNELS 6 Xposition Yposition Zposition Zrotation Yrotation Xrotation
			End Site
			{
				OFFSET 0.000000 0.000000 -0.105000
			}
		}
	}
	JOINT RightUpperarm
	{
		OFFSET -0.098000 -0.075000 -0.000000
		CHANNELS 6 Xposition Yposition Zposition Zrotation Yrotation Xrotation
		JOINT RightLowerarm
		{
			OFFSET 0.000000 -0.009000 -0.090000
			CHANNELS 6 Xposition Yposition Zposition Zrotation Yrotation Xrotation
			End Site
			{
				OFFSET 0.000000 0.000000 -0.105000
			}
		}
	}
}
MOTION
Frames: 15
Frame Time: 0.041667
0.000000 0.000000 0.000000 0.000000 -0.000000 0.000000 0.054999 0.114999 0.010000 3.142178 -170.233900 23.684487 0.000000 0.119999 -0.015000 0.000017 -0.000048 -36.078511 0.000000 0.100000 0.010000 -25.193677 179.376614 -15.650115 -0.055000 0.115002 0.010000 -2.935750 182.209612 18.301115 0.000000 0.120000 -0.015000 0.000008 0.000013 -78.971761 -0.000000 0.100000 0.010000 26.837316 -161.380377 -2.362927 -0.000000 -0.040002 -0.000000 -1.229726 1.956503 -5.923833 -0.000000 -0.100000 0.000000 -0.582155 1.840209 -25.291543 0.097998 -0.075000 0.000000 180.525930 -23.403163 -95.427025 -0.000000 -0.009001 -0.089998 3.365942 17.835895 26.921493 -0.097998 -0.075000 0.000000 -180.035986 16.063022 -89.038701 0.000000 -0.009000 -0.090000 -1.864951 -14.534333 20.258215 
0.000000 0.000000 0.000000 0.000000 -0.000000 0.000000 0.055000 0.115000 0.010000 3.242509 -170.185228 23.052177 -0.000000 0.119999 -0.015000 0.000042 -0.000021 -35.876938 0.000000 0.100000 0.010000 -25.223617 179.418578 -16.057174 -0.055000 0.115001 0.010000 -2.907139 182.563020 20.031248 0.000000 0.119999 -0.015000 -0.000063 -0.000039 -81.018065 -0.000001 0.100000 0.010000 27.221755 -161.216589 -3.891312 -0.000000 -0.040000 -0.000000 -1.737041 1.947570 -6.280754 -0.000000 -0.100002 -0.000001 -0.888373 1.060266 -25.143805 0.098002 -0.075000 -0.000000 180.358358 -23.963826 -95.442939 -0.000000 -0.009000 -0.090002 3.437168 17.968641 27.201568 -0.098002 -0.075000 -0.000000 -180.057338 15.960701 -88.940920 0.000000 -0.009000 -0.090000 -1.797656 -14.356014 19.912534 
0.000000 0.000000 0.000000 0.000000 -0.000000 0.000000 0.055001 0.115001 0.009999 3.433195 -169.722169 22.282864 0.000000 0.120000 -0.015000 0.000010 -0.000071 -35.802216 0.000000 0.100000 0.010000 -25.295580 179.186734 -16.743048 -0.055000 0.115001 0.010000 -2.677438 183.037786 21.639692 0.000000 0.119999 -0.015000 -0.000008 -0.000019 -82.782098 -0.000000 0.100000 0.010000 27.641279 -161.816033 -6.218567 0.000000 -0.039998 -0.000001 -1.766256 2.091007 -5.452568 -0.000000 -0.099998 0.000000 -0.933709 1.361783 -24.717567 0.098000 -0.075000 0.000001 180.234923 -24.424394 -95.556443 0.000000 -0.008999 -0.090002 3.555460 18.185220 27.661054 -0.098000 -0.075000 -0.000000 -180.204214 16.084187 -89.172832 -0.000000 -0.009000 -0.090000 -1.821067 -14.418449 20.033510 
0.000000 0.000000 0.000000 0.000000 -0.000000 0.000000 0.055000 0.115000 0.010000 3.563551 -170.110929 21.788636 0.000000 0.120001 -0.015000 -0.000003 -0.000013 -35.681257 0.000000 0.100000 0.010000 -25.271951 179.629986 -16.902461 -0.055000 0.114999 0.010000 -2.580696 183.360280 23.278550 0.000000 0.120000 -0.015000 -0.000009 -0.000048 -84.346102 -0.000000 0.100000 0.010000 28.073747 -161.802687 -8.282727 -0.000000 -0.039998 -0.000000 -1.694203 2.472286 -6.028271 -0.000000 -0.099998 0.000001 -0.853273 1.339874 -25.597734 0.098000 -0.075000 0.000000 180.010086 -24.569140 -95.435706 -0.000000 -0.009001 -0.090000 3.583926 18.236656 27.770473 -0.098000 -0.075000 -0.000000 -180.283813 15.950621 -89.262486 0.000000 -0.009000 -0.090002 -1.810110 -14.389294 19.977096 
0.000000 0.000000 0.000000 0.000000 -0.000000 0.000000 0.055000 0.115000 0.010000 3.685380 -170.124795 21.152228 -0.000000 0.120001 -0.015000 -0.000004 -0.000061 -35.482184 0.000000 0.100000 0.010000 -25.290794 179.719257 -17.259992 -0.055000 0.115000 0.010000 -2.513351 183.738427 24.759217 0.000000 0.120000 -0.015000 -0.000039 0.000024 -85.681335 -0.000000 0.100000 0.010000 28.239695 -162.637528 -9.876564 -0.000000 -0.040000 -0.000000 -2.113229 2.453566 -4.951108 -0.000000 -0.100002 -0.000001 -1.192869 1.104949 -24.364432 0.098000 -0.075000 -0.000000 179.854290 -24.764038 -95.530161 -0.000000 -0.009000 -0.089998 3.639694 18.336758 27.984207 -0.097998 -0.075000 -0.000000 -180.454472 15.804199 -89.568881 0.000000 -0.009000 -0.090000 -1.837161 -14.461124 20.116154 
0.000000 0.000000 0.000000 0.000000 -0.000000 0.000000 0.055001 0.115000 0.010000 3.879171 -170.074606 20.519140 -0.000000 0.119999 -0.015000 0.000025 -0.000018 -35.440550 0.000000 0.100000 0.010000 -25.319487 179.744214 -17.703080 -0.055000 0.115000 0.010000 -2.380161 184.174412 26.189348 0.000000 0.120000 -0.015000 0.000012 0.000016 -86.807558 -0.000000 0.100000 0.010000 28.412066 -162.998517 -11.155457 0.000000 -0.040000 -0.000000 -2.782786 2.406725 -5.047496 -0.000000 -0.099998 0.000001 -1.990721 0.464063 -24.063549 0.098000 -0.074999 -0.000000 179.617760 -25.101722 -95.388687 0.000000 -0.008999 -0.090002 3.652544 18.359830 28.033432 -0.098000 -0.075000 0.000000 -180.600966 15.525365 -89.651157 -0.000000 -0.009000 -0.089998 -1.849624 -14.493955 20.179751 
0.000000 0.000000 0.000000 0.000000 -0.000000 0.000000 0.055000 0.115000 0.010000 4.056958 -170.216647 20.012915 -0.000000 0.119999 -0.015000 0.000003 -0.000051 -35.528083 0.000000 0.100000 0.010000 -25.323830 180.044237 -18.134200 -0.055000 0.114999 0.010001 -2.258014 184.497015 27.643674 0.000000 0.120001 -0.015000 -0.000036 -0.000027 -87.708419 -0.000000 0.100000 0.010000 28.464562 -163.449323 -11.905100 -0.000000 -0.040002 -0.000000 -3.544197 2.758670 -5.510212 -0.000000 -0.100000 0.000000 -3.547781 0.462304 -25.274698 0.098000 -0.075000 0.000000 179.389099 -25.490304 -95.276167 -0.000000 -0.008999 -0.090000 3.682985 18.413854 28.149219 -0.098000 -0.075000 -0.000000 -180.761489 15.424314 -89.795882 0.000000 -0.009000 -0.090000 -1.882485 -14.580150 20.347238 
0.000000 0.000000 0.000000 0.000000 -0.000000 0.000000 0.055000 0.114999 0.010000 4.152886 -170.273911 19.581507 -0.000000 0.120000 -0.015000 -0.000023 -0.000025 -35.650732 0.000000 0.100000 0.010001 -25.334350 180.224800 -18.535009 -0.055000 0.115000 0.010000 -2.263361 184.719871 29.145124 -0.000000 0.120000 -0.015000 0.000047 -0.000045 -88.430821 -0.000000 0.100000 0.009999 28.396935 -162.816000 -10.892910 -0.000000 -0.040000 -0.000000 -3.588629 3.117453 -5.828075 -0.000000 -0.100002 0.000000 -3.755347 0.512657 -26.147219 0.098002 -0.075000 -0.000000 179.102901 -25.925805 -95.048810 0.000000 -0.009000 -0.090002 3.679987 18.408552 28.137861 -0.098000 -0.075000 0.000000 -180.844490 15.276340 -89.861479 0.000000 -0.009000 -0.089998 -1.894543 -14.611504 20.408291 
0.000000 0.000000 0.000000 0.000000 -0.000000 0.000000 0.054999 0.114999 0.010000 4.277841 -170.210746 19.136757 -0.000000 0.119999 -0.015000 -0.000002 0.000003 -35.853087 0.000000 0.100000 0.010000 -25.358600 180.263432 -18.998033 -0.055000 0.115000 0.010000 -2.256822 184.935950 30.526263 0.000000 0.120000 -0.015000 -0.000019 0.000044 -88.951275 -0.000000 0.100000 0.010000 28.456610 -163.987460 -12.413472 -0.000000 -0.040002 -0.000000 -3.647283 3.126258 -5.434277 -0.000000 -0.099998 0.000000 -3.446238 0.228310 -25.570411 0.098000 -0.075000 -0.000000 178.833696 -26.379717 -94.918777 -0.000000 -0.009002 -0.089998 3.737026 18.509196 28.353725 -0.098000 -0.075000 -0.000000 -180.978252 14.916133 -90.001635 -0.000000 -0.009000 -0.090000 -1.918703 -14.674293 20.530374 
0.000000 0.000000 0.000000 0.000000 -0.000000 0.000000 0.055000 0.115000 0.010000 4.400734 -170.388467 18.745710 -0.000000 0.119999 -0.015000 0.000049 0.000016 -36.142424 0.000000 0.100000 0.010000 -25.356883 180.496478 -19.303593 -0.055000 0.115001 0.010000 -2.234010 185.129395 31.774918 -0.000000 0.120000 -0.015000 -0.000019 -0.000031 -89.245881 -0.000000 0.100000 0.010000 28.478711 -164.848569 -13.467143 -0.000000 -0.039998 -0.000000 -3.709357 3.163077 -5.120838 -0.000000 -0.100000 0.000001 -3.126317 -0.055499 -24.869219 0.097998 -0.075000 -0.000000 178.695726 -26.678765 -94.960830 0.000001 -0.009000 -0.090000 3.900548 18.792630 28.965582 -0.098000 -0.075000 0.000000 -181.138543 14.438410 -90.125487 0.000000 -0.009000 -0.089998 -1.967354 -14.798920 20.773401 
0.000000 0.000000 0.000000 0.000000 -0.000000 0.000000 0.055000 0.115000 0.010000 4.477665 -170.572158 18.433125 -0.000000 0.120000 -0.015000 -0.000010 -0.000029 -36.471011 0.000000 0.100000 0.010000 -25.349083 180.900429 -19.771755 -0.055000 0.115002 0.010000 -2.275993 185.217559 33.065086 0.000000 0.119999 -0.015000 0.000010 0.000002 -89.351613 -0.000000 0.100000 0.009999 28.508337 -165.857347 -14.804374 0.000000 -0.040000 -0.000000 -3.862360 3.552337 -5.105612 -0.000000 -0.100002 -0.000001 -3.660108 0.029630 -25.468324 0.098000 -0.075001 -0.000000 178.704113 -26.972907 -95.252800 0.000000 -0.009000 -0.090000 4.124186 19.168320 29.785055 -0.098000 -0.075000 -0.000000 -181.360469 14.188306 -90.338985 0.000000 -0.009000 -0.090000 -2.090154 -15.106763 21.376566 
0.000000 0.000000 0.000000 0.000000 -0.000000 0.000000 0.055000 0.115002 0.010000 4.592396 -170.620461 18.176168 -0.000000 0.120001 -0.015000 0.000027 -0.000010 -36.864235 0.000000 0.100000 0.010000 -25.356995 181.090814 -20.248803 -0.055000 0.115000 0.010000 -2.265245 185.273703 34.410066 -0.000000 0.119999 -0.014999 -0.000033 0.000012 -89.321888 -0.000000 0.100000 0.010000 28.490061 -166.986883 -16.042146 -0.000000 -0.040000 -0.000000 -4.344650 3.689721 -5.362034 -0.000000 -0.100002 0.000000 -4.316151 -0.080500 -25.673293 0.098000 -0.075000 -0.000001 178.531528 -27.302339 -95.233505 -0.000000 -0.008999 -0.090002 4.203303 19.298254 30.070652 -0.097998 -0.075000 -0.000000 -181.466132 13.337327 -90.432627 -0.000000 -0.009000 -0.090002 -1.995786 -14.870992 20.914393 
0.000000 0.000000 0.000000 0.000000 -0.000000 0.000000 0.054999 0.114999 0.010000 4.709296 -170.683627 17.930387 -0.000000 0.120000 -0.015000 0.000057 -0.000005 -37.314775 0.000000 0.100000 0.010000 -25.359611 181.314584 -20.709934 -0.055000 0.115002 0.010000 -2.290746 185.267624 35.575409 0.000000 0.120000 -0.015000 0.000037 -0.000028 -89.040928 -0.000000 0.100000 0.010000 28.434607 -168.030208 -16.949867 -0.000000 -0.040000 -0.000000 -4.137297 4.009969 -4.943258 -0.000000 -0.100002 0.000000 -4.158373 0.274780 -25.538654 0.097998 -0.075000 -0.000000 178.244947 -27.688170 -95.076739 -0.000000 -0.009000 -0.090000 4.232085 19.345020 30.173942 -0.098000 -0.075000 0.000000 -181.606616 12.858448 -90.457407 0.000000 -0.009000 -0.090002 -1.969946 -14.805594 20.786545 
0.000000 0.000000 0.000000 0.000000 -0.000000 0.000000 0.054999 0.115000 0.010000 4.793883 -170.714882 17.643130 -0.000000 0.119999 -0.015000 -0.000010 -0.000011 -37.781779 0.000000 0.100000 0.010000 -25.364993 181.517127 -21.243495 -0.055000 0.114999 0.010000 -2.385523 185.199036 36.641154 -0.000000 0.120000 -0.015000 0.000026 0.000037 -88.533417 -0.000000 0.100000 0.010000 28.367176 -168.914253 -17.571739 -0.000000 -0.039998 -0.000000 -4.551591 4.080822 -5.073574 -0.000000 -0.099998 0.000000 -4.555117 -0.190060 -25.665061 0.097998 -0.075000 -0.000000 178.023813 -28.039960 -95.017193 -0.000000 -0.009000 -0.090000 4.272915 19.410964 30.319647 -0.098000 -0.075000 -0.000000 -181.809773 12.782572 -90.613292 0.000000 -0.009000 -0.090000 -2.055012 -15.019796 21.205750 
0.000000 0.000000 0.000000 0.000000 -0.000000 0.000000 0.055001 0.115001 0.010000 4.891087 -170.728474 17.414547 0.000000 0.120000 -0.015000 -0.000012 -0.000024 -38.274037 0.000000 0.100000 0.010000 -25.374598 181.642160 -21.787327 -0.055001 0.115001 0.010000 -2.456692 185.124259 37.719815 0.000000 0.120000 -0.015000 -0.000047 -0.000021 -87.783599 -0.000000 0.100000 0.010000 28.337208 -169.791113 -18.549336 -0.000000 -0.039998 -0.000000 -4.688194 4.229250 -4.803827 -0.000000 -0.100002 -0.000001 -4.527269 -0.413879 -25.333088 0.098000 -0.075000 -0.000000 177.675173 -28.261509 -94.553382 0.000000 -0.009000 -0.090000 4.168782 19.241876 29.946476 -0.098002 -0.075000 0.000000 -181.925148 12.783263 -90.770086 -0.000000 -0.009000 -0.090000 -2.116444 -15.171409 21.503754 
